<?xml version="1.0" standalone="no"?>
<!DOCTYPE svg PUBLIC "-//W3C//DTD SVG 20010904//EN"
 "http://www.w3.org/TR/2001/REC-SVG-20010904/DTD/svg10.dtd">
<svg version="1.0" xmlns="http://www.w3.org/2000/svg"
 width="480.000000pt" height="480.000000pt" viewBox="0 0 480.000000 480.000000"
 preserveAspectRatio="xMidYMid meet">
<metadata>
Created by potrace 1.11, written by Peter Selinger 2001-2013
</metadata>
<g transform="translate(0.000000,480.000000) scale(0.100000,-0.100000)"
fill="#000000" stroke="none">
<path d="M2379 4766 c-2 -2 -38 -7 -79 -10 -41 -4 -111 -14 -155 -23 -44 -8
-91 -17 -105 -19 -43 -7 -237 -64 -276 -80 -21 -9 -45 -17 -54 -19 -47 -9
-285 -127 -400 -199 -67 -41 -226 -156 -283 -203 -133 -112 -376 -389 -454
-518 -57 -94 -107 -183 -142 -253 -47 -93 -124 -296 -146 -382 0 -3 -7 -29
-14 -57 -7 -29 -17 -50 -22 -47 -5 3 -6 -1 -3 -9 3 -8 -2 -54 -11 -103 -10
-49 -19 -106 -21 -129 -1 -22 -6 -78 -10 -125 -12 -135 -8 -321 10 -496 2 -18
6 -37 10 -43 4 -6 1 -11 -6 -11 -10 0 -10 -2 1 -9 8 -5 12 -19 9 -35 -3 -14
-1 -23 3 -20 5 3 10 -3 10 -13 3 -37 12 -87 24 -123 3 -10 7 -27 10 -37 2 -10
11 -39 20 -66 9 -26 13 -52 10 -57 -3 -6 -1 -10 5 -10 7 0 10 -7 6 -15 -3 -8
-2 -15 2 -15 7 0 32 -57 38 -85 1 -5 8 -23 15 -40 7 -16 12 -33 11 -37 -1 -5
3 -8 10 -8 6 0 9 -3 6 -6 -4 -3 0 -17 7 -31 8 -15 11 -31 8 -36 -3 -6 -1 -7 5
-3 13 8 26 -29 16 -45 -4 -7 -3 -9 4 -5 13 8 44 -52 35 -67 -3 -5 -1 -7 4 -4
13 8 26 -20 16 -35 -3 -6 -1 -8 4 -5 14 9 34 -15 36 -42 1 -11 3 -18 6 -16 7
8 30 -29 31 -48 0 -10 4 -15 10 -12 6 3 10 -1 10 -9 0 -9 5 -16 10 -16 6 0 10
-7 10 -15 0 -8 5 -15 10 -15 6 0 10 -7 10 -15 0 -8 4 -15 8 -15 11 0 55 -61
55 -76 0 -7 4 -11 8 -8 4 2 18 -10 31 -28 12 -18 35 -45 50 -60 16 -15 28 -30
28 -34 0 -4 10 -15 23 -26 12 -11 22 -25 22 -31 0 -7 6 -12 12 -12 7 0 30 -19
52 -42 21 -24 42 -43 46 -43 5 0 23 -16 42 -35 18 -19 42 -39 53 -45 12 -6 17
-17 14 -28 -4 -11 -3 -13 3 -5 8 11 54 -17 114 -70 8 -7 23 -17 33 -20 9 -4
14 -11 11 -17 -3 -6 1 -7 9 -4 9 4 18 -1 22 -10 3 -9 10 -13 15 -10 5 3 9 0 9
-5 0 -6 7 -11 16 -11 11 0 14 -5 10 -16 -5 -14 -4 -15 9 -4 14 11 19 7 16 -12
0 -4 5 -5 13 -2 7 3 20 -2 29 -10 8 -8 17 -12 21 -9 3 4 6 1 6 -6 0 -7 5 -9
10 -6 5 3 10 1 10 -4 0 -6 7 -11 15 -11 8 0 15 -4 15 -10 0 -5 3 -9 8 -9 20 3
32 -2 26 -12 -4 -8 1 -9 16 -4 19 6 22 4 16 -10 -5 -15 -4 -16 9 -5 10 8 15 9
15 1 0 -6 7 -11 16 -11 9 0 23 -8 32 -18 10 -10 13 -12 8 -5 -7 10 -4 12 10 6
10 -3 21 -10 24 -15 3 -4 17 -9 30 -12 14 -2 24 -9 23 -15 -2 -6 4 -8 14 -4
12 5 14 3 8 -8 -7 -11 -6 -12 6 -3 10 8 20 8 36 -1 13 -6 21 -14 19 -16 -2 -2
8 -4 24 -5 15 -1 36 -5 46 -9 24 -10 30 -12 50 -14 9 -1 12 -6 8 -13 -5 -9 -2
-9 9 1 15 12 21 9 19 -9 0 -3 15 -4 35 -2 27 4 34 1 28 -8 -6 -9 -4 -11 5 -5
7 4 16 2 21 -6 5 -8 9 -9 9 -3 0 6 13 9 30 6 17 -2 30 -7 30 -11 0 -4 10 -7
23 -8 64 -2 109 -8 113 -15 3 -5 9 -6 14 -3 5 3 18 1 29 -4 12 -7 21 -7 23 -1
2 6 14 4 31 -5 15 -8 25 -10 22 -5 -4 6 5 10 19 10 13 0 27 -6 29 -12 3 -7 6
-8 6 -2 1 10 61 10 89 -1 7 -3 22 0 32 5 10 6 21 7 24 2 4 -7 61 -7 149 2 22
2 37 -1 37 -8 0 -8 3 -7 8 0 4 7 23 13 42 15 26 3 34 0 32 -11 -3 -11 1 -10
15 3 15 13 22 14 33 4 10 -10 11 -9 5 2 -6 11 -4 13 8 8 10 -4 17 -2 17 5 0 6
6 5 17 -3 14 -12 16 -12 8 0 -6 11 -2 13 18 9 15 -3 28 -2 29 3 2 4 21 10 43
12 22 3 49 9 59 13 13 5 17 4 12 -4 -3 -6 -2 -14 4 -17 6 -4 10 -3 9 2 -5 27
1 35 16 23 12 -10 16 -9 21 5 7 17 8 17 22 -1 13 -16 14 -17 9 -1 -6 15 12 25
26 15 2 -2 10 2 18 8 12 10 64 25 86 26 5 0 14 5 22 11 12 10 13 9 7 -3 -4 -8
0 -6 8 4 9 11 16 17 16 13 0 -3 25 5 56 19 30 13 59 22 64 19 5 -3 13 3 19 12
6 10 11 15 11 10 0 -4 12 1 27 10 15 10 24 13 20 6 -4 -6 -2 -15 4 -19 7 -4 9
-3 5 4 -7 12 33 44 46 36 4 -3 8 -1 8 3 0 13 108 65 120 58 6 -4 7 1 3 11 -4
12 -3 15 5 10 7 -4 12 -2 12 4 0 6 5 8 10 5 6 -3 10 -1 10 5 0 6 4 9 9 6 5 -3
12 1 15 10 3 9 13 14 21 10 8 -3 17 0 21 6 4 7 3 8 -4 4 -7 -4 -12 -5 -12 -3
0 12 73 47 83 41 7 -4 9 -4 5 1 -7 7 14 35 28 35 3 0 14 9 23 19 10 11 23 21
30 23 8 2 29 18 47 37 19 19 34 31 34 28 0 -4 14 7 31 24 16 16 34 27 39 24 6
-4 7 2 3 12 -3 10 -3 15 2 11 4 -4 21 9 36 29 16 20 29 33 29 29 0 -4 11 5 24
19 14 15 30 24 35 20 6 -3 9 0 6 7 -2 7 9 29 26 48 17 19 27 28 23 20 -4 -9
-3 -12 2 -7 5 5 9 14 9 20 1 7 7 11 14 9 7 -1 10 2 7 7 -4 5 2 14 11 20 10 6
14 11 9 11 -5 0 6 15 25 32 19 18 34 35 33 38 -3 12 29 49 37 44 5 -3 6 2 3
10 -4 10 -1 16 10 16 9 0 13 6 10 13 -6 18 21 41 38 31 10 -5 10 -4 1 6 -14
15 -6 43 10 33 5 -3 7 -1 3 5 -3 6 1 17 9 26 14 14 8 19 -67 57 -46 23 -576
289 -1178 591 -602 303 -1099 553 -1105 556 -5 4 -17 7 -25 9 -8 1 -20 9 -26
17 -6 9 -20 16 -30 16 -16 1 -15 3 6 14 14 8 29 12 34 9 5 -4 14 1 20 9 16 22
75 50 88 42 6 -4 8 -3 4 4 -5 9 22 25 46 27 4 0 16 7 26 16 26 23 50 30 56 16
2 -7 5 -4 5 6 1 10 5 16 10 13 5 -4 11 -2 13 3 1 5 36 25 76 44 40 20 69 30
66 24 -4 -7 3 -2 15 11 12 12 26 20 31 17 4 -3 11 2 14 11 4 9 13 14 21 10 8
-3 15 -1 15 4 0 9 39 26 53 22 4 -1 7 2 7 7 0 9 79 46 93 43 4 -1 7 2 7 7 0 9
40 27 48 22 1 -1 10 5 18 14 9 8 20 13 25 9 5 -3 12 2 15 11 4 9 12 14 20 11
7 -3 14 -1 16 4 2 5 10 10 18 12 8 2 21 9 29 16 7 7 20 11 28 8 8 -3 12 -2 9
2 -3 5 10 15 29 22 19 8 35 17 35 22 0 4 6 8 13 8 18 0 80 31 89 44 4 6 12 5
22 -4 14 -11 16 -10 11 3 -5 11 6 20 39 32 25 10 46 22 46 27 0 5 4 7 9 4 5
-3 20 4 35 15 14 11 30 17 36 14 5 -3 10 -1 10 4 0 6 6 11 14 11 8 0 16 5 18
10 2 6 13 12 26 13 12 0 22 5 22 9 0 14 44 27 56 16 8 -6 11 -3 10 9 -1 13 6
18 21 17 12 0 20 3 17 8 -5 7 1 9 21 8 3 -1 13 6 22 15 8 9 22 14 30 11 9 -4
11 -2 7 6 -5 8 -2 9 10 5 9 -4 15 -3 12 1 -3 5 11 16 30 26 30 14 39 14 53 4
14 -12 15 -11 2 4 -11 15 -11 19 5 24 11 3 31 12 45 19 18 10 29 11 36 4 8 -8
11 -6 10 7 -2 14 4 19 20 18 12 0 20 3 17 8 -5 7 1 9 21 8 3 -1 13 6 22 15 8
9 22 14 29 11 8 -3 13 0 11 7 -1 7 8 11 20 11 13 -1 20 3 16 9 -4 6 0 8 11 4
10 -4 15 -3 11 3 -10 17 24 23 43 9 15 -12 16 -12 5 2 -14 17 -8 29 15 29 7 0
26 9 41 19 15 11 39 23 54 26 15 4 27 11 27 17 0 5 4 7 9 4 5 -4 11 -2 13 3 1
4 22 18 46 29 23 11 39 15 36 9 -3 -7 1 -4 10 7 9 11 20 15 28 10 7 -4 10 -4
6 1 -8 9 54 45 77 45 8 0 15 4 15 9 0 5 14 14 30 20 17 5 30 13 30 16 0 13
-65 115 -72 115 -5 0 -8 5 -8 11 0 18 -149 197 -245 293 -122 123 -154 151
-330 284 -52 39 -235 146 -310 181 -266 125 -437 175 -770 226 -43 7 -430 16
-436 11z"/>
<path d="M4455 3580 c3 -5 8 -10 11 -10 2 0 4 5 4 10 0 6 -5 10 -11 10 -5 0
-7 -4 -4 -10z"/>
<path d="M2190 66 c0 -2 7 -7 16 -10 8 -3 12 -2 9 4 -6 10 -25 14 -25 6z"/>
<path d="M2416 38 c3 -5 10 -6 15 -3 13 9 11 12 -6 12 -8 0 -12 -4 -9 -9z"/>
</g>
</svg>
